<?xml version="1.0" encoding="utf-8"?>
<!-- Generator: Adobe Illustrator 16.2.1, SVG Export Plug-In . SVG Version: 6.00 Build 0)  -->
<!DOCTYPE svg PUBLIC "-//W3C//DTD SVG 1.1//EN" "http://www.w3.org/Graphics/SVG/1.1/DTD/svg11.dtd">
<svg version="1.1" id="Layer_1" xmlns="http://www.w3.org/2000/svg" xmlns:xlink="http://www.w3.org/1999/xlink" x="0px" y="0px"
	 width="700px" height="251.363px" viewBox="-3.577 0 700 251.363" enable-background="new -3.577 0 700 251.363"
	 xml:space="preserve">
<g>
	<path fill="#FFFFFF" d="M-10.153-6v265h712V-6H-10.153z M692.847,251.363l-680.865-9.808L0,45.291l20.847-4.528V0l45.761,40.763
		l626.239,17.913V251.363L692.847,251.363z"/>
	<path fill="#FFFFFF" d="M65.9,222.739c-2.314-0.583-4.918-4.655-5.496-23.417c-0.578-18.762,4.05-23.125,4.05-23.125
		c7.231,0.291,5.785,16.289,6.653,25.598C71.976,211.104,68.215,223.321,65.9,222.739 M84.993,202.377
		c-4.338-30.833-1.479-31.706-13.757-38.396l-6.492-0.291c0,0-17.646-1.164-18.225,31.707C45.94,228.266,65.9,234.665,65.9,234.665
		S89.333,233.211,84.993,202.377"/>
	<polygon fill="#FFFFFF" points="647.755,164.66 679.812,161.913 679.812,179.514 670.794,179.514 672.24,231.137 659.228,231.137 
		660.142,182.359 647.755,181.283 	"/>
	<polygon fill="#FFFFFF" points="460.367,167.31 492.423,164.563 492.423,182.163 483.406,182.163 484.851,233.787 471.841,233.787 
		472.753,185.009 460.367,183.933 	"/>
	<polygon fill="#FFFFFF" points="333.842,167.31 365.899,164.563 365.899,182.163 356.88,182.163 358.326,233.787 345.316,233.787 
		346.229,185.009 333.842,183.933 	"/>
	<polygon fill="#FFFFFF" points="309.216,73.3 341.273,70.552 341.273,88.154 332.255,88.154 333.7,139.777 320.69,139.777 
		320.547,84.989 309.216,89.923 	"/>
	<polygon fill="#FFFFFF" points="417.939,236.096 447.919,236.096 447.919,222.869 426.503,221.987 427.333,211.119 
		438.996,211.412 438.109,200.103 425.832,203.48 425.628,181.156 447.919,176.162 447.919,166.468 416.279,164.563 	"/>
	<polygon fill="#FFFFFF" points="572.49,236.096 602.472,236.096 602.472,222.869 581.052,221.987 581.57,215.218 593.546,211.412 
		592.658,200.103 580.74,199.175 582.656,176.131 602.472,176.162 602.472,166.468 570.828,164.563 	"/>
	<polygon fill="#FFFFFF" points="392.688,141.646 422.669,141.646 422.669,128.419 401.251,127.538 402.082,116.669 
		413.746,116.963 412.859,105.654 403.765,104.401 400.378,86.706 422.669,81.712 422.669,67.157 391.026,70.113 	"/>
	<polygon fill="#FFFFFF" points="71.369,140.932 101.352,140.932 101.352,127.706 79.933,126.823 80.764,115.955 92.426,116.249 
		91.539,104.939 79.263,108.317 77.688,78.196 101.352,80.998 101.352,71.304 69.708,69.399 	"/>
	<polygon fill="#FFFFFF" points="199.959,70.554 197.699,140.932 212.671,140.932 211.259,70.554 	"/>
	<polygon fill="#FFFFFF" points="226.582,163.986 224.321,234.364 239.293,234.364 237.881,163.986 	"/>
	<polygon fill="#FFFFFF" points="440.496,64.323 461.894,64.323 469.326,80.46 479.132,64.323 496.371,64.323 498.451,137.48 
		483.048,137.48 483.048,106.091 474.552,129.997 464.21,129.102 456.216,103.557 454.464,137.48 441.685,137.48 	"/>
	<path fill="#FFFFFF" d="M575.425,108.184l15.455-3.587c0,0,0.594,14.644-6.389,22.413c-6.984,7.771-18.873,12.253-32.545,4.482
		c-13.672-7.769-12.779-37.952-12.779-37.952s0.662-25.103,15.041-29.287c14.383-4.183,30.719,7.172,34.885,21.518l-16.641,5.378
		c0,0-4.16-15.838-11.887-14.644c-7.729,1.195-6.242,24.206-6.242,24.206s4.684,23.127,14.562,20.919
		C571.562,121.033,577.208,112.965,575.425,108.184"/>
	<g>
		<rect x="524.136" y="76.372" fill="#FFFFFF" width="1.711" height="2.152"/>
		<rect x="519" y="71.208" fill="#FFFFFF" width="2.568" height="2.583"/>
		<rect x="524.136" y="71.208" fill="#FFFFFF" width="1.711" height="2.583"/>
		<rect x="519" y="76.372" fill="#FFFFFF" width="2.568" height="2.152"/>
		<path fill="#FFFFFF" d="M528.416,76.372v2.227v2.391v3.56h-2.568v-3.441h-2.135h-2.379h-2.332v2.582h-2.57v-2.582h-5.99v-2.582
			h5.99v-2.152h-2.139V73.79h2.139v-2.583h-4.707v-1.721h4.707v-3.874h2.57v3.874h2.566V63.03h2.568v6.456h1.711v-2.582h2.568v2.582
			h1.283v1.721h-1.283v2.583h3.852v2.582H528.416z M536.789,74.514c0-8.748-7.051-15.839-15.75-15.839
			c-8.701,0-15.754,7.092-15.754,15.839c0,4.48,1.666,8.519,4.641,11.399l-2.055-0.144v46.619l6.139-0.997l-0.695,5.776l8.566,2.79
			l0.816-7.969l5.959,0.797l2.777-45.225l-1.342-0.104C534.138,84.592,536.789,79.869,536.789,74.514"/>
	</g>
	<polygon fill="#FFFFFF" points="371.257,164.674 383.477,164.674 383.477,196.106 396.371,196.106 396.371,164.563 
		406.847,166.802 406.847,233.983 396.773,233.983 396.773,208.216 381.058,207.376 381.058,233.983 372.378,233.983 	"/>
	<polygon fill="#FFFFFF" points="348.103,66.302 360.322,66.302 360.322,97.733 373.216,97.733 373.216,66.191 383.693,68.43 
		383.693,135.611 373.621,135.611 373.621,109.844 357.904,109.005 357.904,135.611 349.222,135.611 	"/>
	<polygon fill="#FFFFFF" points="223.39,70.784 221.224,141.646 231.621,141.646 233.642,103.313 239.997,141.646 250.105,141.646 
		251.548,70.552 242.018,70.552 241.441,104.208 233.354,70.871 	"/>
	<polygon fill="#FFFFFF" points="248.595,165.014 246.429,235.876 256.826,235.876 258.848,197.543 265.202,235.876 
		275.311,235.876 276.753,164.783 267.223,164.783 266.646,198.438 258.559,165.1 	"/>
	<polygon fill="#FFFFFF" points="612.423,165.014 610.255,235.876 620.654,235.876 622.365,203.414 629.029,235.876 
		639.138,235.876 640.582,164.783 631.05,164.783 630.593,191.374 622.386,165.1 	"/>
	<path fill="#FFFFFF" d="M307.856,195.216l14.282-6.029c0,0-3.809-12.696-7.141-18.091c-3.333-5.396-9.045-7.302-15.076-6.983
		c-6.03,0.317-16.187,13.965-17.139,26.661c-0.953,12.695,3.1,34.914,3.1,34.914s3.102,15.87,16.506,15.87
		c13.403,0,19.75-22.218,19.75-22.218l2.54,0.635l-2.54-14.917l-16.968,1.669l-2.781,13.729h9.911c0,0-4.738,6.106-7.13,6.425
		c-2.392,0.317-7.471-0.438-8.422-7.104c-0.952-6.666-0.635-26.086-0.635-26.086s-0.317-14.948,5.713-14.313
		C307.856,180.012,307.856,195.216,307.856,195.216"/>
	<path fill="#FFFFFF" d="M280.952,96.801l14.283-6.03c0,0-3.809-12.695-7.141-18.091c-3.333-5.396-9.046-7.301-15.076-6.983
		c-6.031,0.317-16.187,13.965-17.139,26.661c-0.953,12.694,3.1,34.913,3.1,34.913s3.102,15.87,16.505,15.87
		c13.403,0,19.75-22.218,19.75-22.218l2.54,0.636l-2.54-14.917l-16.969,1.669l-2.781,13.729h9.912c0,0-4.739,6.106-7.13,6.425
		c-2.391,0.316-7.47-0.438-8.422-7.104c-0.952-6.666-0.634-26.086-0.634-26.086s-0.317-14.948,5.712-14.313
		C280.952,81.597,280.952,96.801,280.952,96.801"/>
	<path fill="#FFFFFF" d="M194.134,135l-21.272-30.244c1.081-0.069,2.277,0.018,3.591-0.213c6.148-1.075,5.346-1.538,8.822-5.839
		c3.475-4.301,3.208-13.688,2.941-16.915c-0.268-3.226-10.293-11.263-18.312-11.263c-8.02,0-14.035,1.459-14.035,1.459l2.94,63.015
		h10.96l-1.766-17.099L182.057,135H194.134z M167.898,81c0,0,4.544-0.989,9.356,1.432c4.812,2.419,2.941,9.178,0,12.135
		c-2.94,2.958-10.961,1.752-10.961,1.752L163.621,81H167.898z"/>
	<path fill="#FFFFFF" d="M219.422,234.364l-6.75-14.705l-11.502-16.062c1.081-0.071,2.277-0.251,3.591-0.482
		c6.148-1.075,5.346-1.673,8.821-5.974c3.476-4.302,3.208-13.757,2.941-16.982s-10.293-11.295-18.312-11.295
		c-8.02,0-14.035,1.79-14.035,1.79l2.94,63.347h10.961l-0.377-21.513l12.664,21.797L219.422,234.364z M196.204,180
		c0,0,4.545-1.338,9.357,1.081s2.94,9.006,0,11.962c-2.942,2.957-10.961,2.014-10.961,2.014L191.927,180H196.204z"/>
	<path fill="#FFFFFF" d="M182.515,208.614c-0.18-2.173-4.548-6.419-9.887-9.217c1.321-0.86,1.957-2.171,4.026-4.731
		c3.674-4.549,3.392-14.534,3.109-17.944c-0.283-3.41-10.884-11.938-19.365-11.938c-8.48,0-14.841,2.237-14.841,2.237l3.109,67.329
		l11.477-1.215c1.27,0.24,4.805,0.661,9.934-0.235c6.501-1.137,5.654-1.768,9.329-6.314
		C183.08,222.035,182.797,212.025,182.515,208.614z M158.278,177c0,0,4.806-1.631,9.895,0.927c5.089,2.559,3.109,9.414,0,12.541
		c-3.11,3.128-11.59,2.292-11.59,2.292L153.754,177H158.278z M170.924,222.116c-3.11,3.127-11.591,1.925-11.591,1.925l-0.267-1.484
		L157.571,208h3.459c0,0,4.806-1.185,9.894,1.373C176.013,211.931,174.033,218.99,170.924,222.116z"/>
	<path fill="#FFFFFF" d="M151.377,112.26c-0.18-2.173-4.548-6.418-9.887-9.217c1.321-0.858,1.956-2.17,4.026-4.73
		c3.674-4.548,3.391-14.533,3.109-17.944c-0.283-3.411-10.884-11.938-19.365-11.938c-8.481,0-14.841,2.235-14.841,2.235
		l2.996,64.873c0,0,16.395,1.904,21.523,1.007c6.502-1.137,5.654-1.767,9.329-6.314C151.942,125.682,151.66,115.673,151.377,112.26z
		 M127.141,80c0,0,4.806-1.308,9.894,1.25c5.089,2.56,3.109,9.577,0,12.702c-3.11,3.128-11.59,2.05-11.59,2.05L122.617,80H127.141z
		 M139.787,125.764c-3.11,3.127-11.59,1.925-11.59,1.925l-0.268-1.309L126.433,112h3.459c0,0,4.806-1.36,9.895,1.196
		C144.875,115.755,142.896,122.637,139.787,125.764z"/>
	<polygon fill="#FFFFFF" points="9.386,169 23.54,169 27.502,196.779 34.862,165 49.015,165 33.73,214.078 37.126,236 22.973,236 
		24.105,215.804 	"/>
	<polygon fill="#FFFFFF" points="537.847,169 548.847,169 548.847,225.888 564.847,218.528 564.847,238 537.847,238 	"/>
	<path fill="#FFFFFF" d="M521.812,168.706l-13.541-3.927l-13.082,71.088l14.689-1.487l-2.279-16.418l11.408-2.831l2.277,19.249
		l10.561,1.699v-14.153L521.812,168.706z M509.289,209.124L510.416,185h6.227l5.096,20.271L509.289,209.124z"/>
	<polygon fill="#FFFFFF" points="92.229,164.783 100.847,168.708 100.847,220.226 107.767,224.755 114.357,218.528 111.026,168.708 
		123.847,171.305 123.847,224.755 114.754,234.665 104.098,236.078 92.439,226.454 89.755,203.525 	"/>
	<polygon fill="#FFFFFF" points="11.453,70.552 22.973,73.79 29.201,120.587 33.164,76.372 43.92,70.554 49.015,123.417 
		58.073,72.499 66.018,76.372 57.507,140.932 49.015,143.14 43.354,139.777 38.735,106.847 34.862,140.932 29.201,143.14 
		20.709,139.96 	"/>
</g>
</svg>
