<?xml version="1.0" encoding="utf-8"?>
<!-- Generator: Adobe Illustrator 16.2.1, SVG Export Plug-In . SVG Version: 6.00 Build 0)  -->
<!DOCTYPE svg PUBLIC "-//W3C//DTD SVG 1.1//EN" "http://www.w3.org/Graphics/SVG/1.1/DTD/svg11.dtd">
<svg version="1.1" id="Layer_1" xmlns="http://www.w3.org/2000/svg" xmlns:xlink="http://www.w3.org/1999/xlink" x="0px" y="0px"
	 width="700px" height="552.188px" viewBox="0 0 700 552.188" enable-background="new 0 0 700 552.188" xml:space="preserve">
<path fill="#FFFFFF" d="M730-26.812H-34v32h21v553h721v-553h22V-26.812z M116.95,483.188l-68.21,64.846l-6.965-54.83L1,494.932
	V30.291L682.409,9.029l17.879,474.16H116.95z"/>
<polygon fill="#FFFFFF" points="535.749,217.854 649.5,208.108 649.5,270.563 617.5,270.563 622.63,453.745 576.465,453.745 
	579.702,280.659 535.749,276.841 "/>
<polygon fill="#FFFFFF" points="371.295,208.516 416.09,208.516 416.09,323.745 463.362,323.745 463.362,208.108 501.771,216.315 
	501.771,462.608 464.84,462.608 464.84,368.144 407.225,365.065 407.225,462.608 375.397,462.608 "/>
<polygon fill="#FFFFFF" points="153.812,220.334 145.604,475.905 199.975,475.905 194.845,220.334 "/>
<polygon fill="#FFFFFF" points="26.604,462.608 63.535,462.608 67.754,343.577 98.414,462.608 133.293,462.608 129.189,216.358 
	101.492,220.44 91.232,314.769 66.613,220.334 22.5,220.334 "/>
<path fill="#FFFFFF" d="M303.586,308.644l46.164-19.492c0,0-12.31-41.034-23.081-58.473c-10.772-17.441-29.237-23.596-48.729-22.57
	c-19.492,1.025-52.32,45.138-55.397,86.172c-3.078,41.035,10.021,112.846,10.021,112.846s10.028,51.293,53.348,51.293
	c43.321,0,63.837-71.809,63.837-71.809l8.209,2.051l-8.209-48.215l-54.846,5.396l-8.991,44.379h32.036
	c0,0-15.315,19.736-23.045,20.764c-7.73,1.023-24.145-1.416-27.222-22.959c-3.077-21.545-2.052-84.316-2.052-84.316
	s-1.025-48.314,18.465-46.262C303.586,259.499,303.586,308.644,303.586,308.644"/>
<polygon fill="#FFFFFF" points="191.671,182.569 254.064,182.569 254.064,155.043 209.492,153.208 211.22,130.59 235.491,131.201 
	233.645,107.666 208.098,114.696 207.675,68.236 254.064,57.844 254.064,37.671 188.214,33.706 "/>
<polygon fill="#FFFFFF" points="280.13,33.401 275.57,182.569 297.457,182.569 301.712,101.877 315.087,182.569 336.367,182.569 
	339.405,32.916 319.343,32.916 318.127,103.761 301.104,33.583 "/>
<polygon fill="#FFFFFF" points="374.346,36.551 418.118,36.551 433.318,69.562 453.38,36.551 488.643,36.551 492.898,186.204 
	461.393,186.204 461.393,121.994 444.012,170.897 422.857,169.065 406.505,116.809 402.919,186.204 376.777,186.204 "/>
<path fill="#FFFFFF" d="M650.36,126.273l31.614-7.336c0,0,1.216,29.955-13.07,45.849c-14.287,15.894-38.606,25.063-66.572,9.169
	c-27.968-15.894-26.143-77.636-26.143-77.636s1.354-51.35,30.771-59.909c29.417-8.558,62.836,14.672,71.356,44.015L644.28,91.428
	c0,0-8.511-32.399-24.317-29.954c-15.808,2.445-12.769,49.516-12.769,49.516s9.578,47.309,29.791,42.792
	C642.458,152.559,654.008,136.054,650.36,126.273"/>
<path fill="#FFFFFF" d="M149.113,88.104c-6.688,6.725-24.927,4.14-24.927,4.14l-6.08-34.679h9.728c0,0,10.335-2.458,21.279,3.043
	C160.057,66.11,155.8,81.38,149.113,88.104 M174.04,59.067c-0.608-7.336-23.407-25.675-41.645-25.675
	c-18.239,0-31.918,4.594-31.918,4.594l6.687,144.584h24.927l-7.296-71.227c0,0,8.511,2.288,22.495-0.157
	c13.983-2.446,12.159-3.747,20.063-13.528C175.255,87.876,174.647,66.403,174.04,59.067"/>
<path fill="#FFFFFF" d="M45.759,156.877c-4.863-1.223-10.335-9.782-11.551-49.211c-1.215-39.429,8.512-48.599,8.512-48.599
	c15.198,0.611,12.159,34.233,13.983,53.796C58.527,132.425,50.623,158.099,45.759,156.877 M85.885,114.085
	c-9.119-64.799-3.111-66.633-28.914-80.693l-13.643-0.611c0,0-37.086-2.446-38.302,66.633C3.81,168.492,45.759,181.94,45.759,181.94
	S95.005,178.884,85.885,114.085"/>
<g>
	<rect x="545.44" y="61.199" fill="#FFFFFF" width="3.502" height="4.402"/>
	<rect x="534.934" y="50.636" fill="#FFFFFF" width="5.254" height="5.282"/>
	<rect x="545.44" y="50.636" fill="#FFFFFF" width="3.502" height="5.282"/>
	<rect x="534.934" y="61.199" fill="#FFFFFF" width="5.254" height="4.402"/>
	<path fill="#FFFFFF" d="M554.195,61.2v4.553v4.891v7.282h-5.253v-7.043h-4.367h-4.864h-4.776v5.282h-5.253v-5.282h-12.258v-5.282
		h12.258V61.2h-4.377v-5.282h4.377v-5.282h-9.631v-3.521h9.631v-7.923h5.253v7.923h5.253V33.91h5.253v13.205h3.502v-5.282h5.253
		v5.282h2.626v3.521h-2.626v5.282h7.879V61.2H554.195z M571.325,57.399c0-17.894-14.426-32.399-32.222-32.399
		s-32.223,14.505-32.223,32.399c0,9.166,3.406,17.426,9.491,23.321l-4.201-0.295v95.365l12.556-2.039l-1.426,11.819l17.527,5.706
		l1.672-16.302l12.185,1.631l5.685-92.512l-2.743-0.213C565.899,78.015,571.325,68.352,571.325,57.399"/>
</g>
<g>
</g>
<g>
</g>
<g>
</g>
<g>
</g>
<g>
</g>
<g>
</g>
<g>
</g>
<g>
</g>
<g>
</g>
<g>
</g>
<g>
</g>
<g>
</g>
<g>
</g>
<g>
</g>
<g>
</g>
</svg>
