<?xml version="1.0" encoding="utf-8"?>
<!-- Generator: Adobe Illustrator 16.2.1, SVG Export Plug-In . SVG Version: 6.00 Build 0)  -->
<!DOCTYPE svg PUBLIC "-//W3C//DTD SVG 1.1//EN" "http://www.w3.org/Graphics/SVG/1.1/DTD/svg11.dtd">
<svg version="1.1" id="Layer_1" xmlns="http://www.w3.org/2000/svg" xmlns:xlink="http://www.w3.org/1999/xlink" x="0px" y="0px"
	 width="700px" height="552.188px" viewBox="0 0 700 552.188" enable-background="new 0 0 700 552.188" xml:space="preserve">
<g>
	<path fill="#FFFFFF" d="M149.113,60.42c-10.944-5.501-21.279-3.231-21.279-3.231h-9.728l6.08,34.867c0,0,18.239,2.585,24.927-4.141
		C155.8,81.191,160.057,65.922,149.113,60.42z"/>
	<path fill="#FFFFFF" d="M45.759,156.877c4.864,1.222,12.768-24.452,10.944-44.014C54.879,93.3,57.918,59.678,42.72,59.067
		c0,0-9.727,9.17-8.512,48.599C35.424,147.095,40.896,155.654,45.759,156.877z"/>
	<path fill="#FFFFFF" d="M530,76.188h5v-5h4.711h4.864H549v7h5v-7.545v-4.891v-4.564h8v-5h-8v-6h3v-3h-3v-5h-5v5h-4v-13h-5v13h-5v-8
		h-5v8h-10v3h10v6h-5v5h5v4h-13v6h13V76.188z M545,50.188h4v6h-4V50.188z M545,61.188h4v4h-4V61.188z M535,50.188h5v6h-5V50.188z
		 M535,61.188h5v4h-5V61.188z"/>
	<path fill="#FFFFFF" d="M682.409,9.029L1,30.291v464.641l40.774-1.728l6.965,54.83l68.21-64.846h583.338L682.409,9.029z
		 M418.118,36.188l15.2,33.011l20.062-33.011h35.263l4.256,150H461v-64.195l-17.185,48.904l-21.056-1.832l-16.304-52.265
		l-3.537,69.388h-26.142l-2.432-150H418.118z M280.13,33.211l20.974,0.277l17.023,70.362l1.216-70.661h20.062l-3.038,149h-21.28
		l-13.375-80.692l-4.255,80.692H275.57L280.13,33.211z M254,37.671v20.173l-46.357,10.392l0.439,46.46l25.556-7.03l1.85,23.535
		l-24.269-0.611l-1.759,22.618L254,155.043v27.145h-62.329l-3.489-148.673L254,37.671z M5.026,99.414
		c1.216-69.079,38.302-66.633,38.302-66.633l13.643,0.611c25.803,14.06,19.795,15.894,28.914,80.693
		c9.12,64.799-40.126,67.855-40.126,67.855S3.81,168.492,5.026,99.414z M98.414,462.188L67.754,343.157l-4.22,119.031H26.604
		l-4.104-242h44.113l24.62,94.507l10.259-94.292l27.698-4.273l4.104,246.059H98.414z M124.794,111.152l7.296,71.036h-24.927
		l-6.687-144.394c0,0,13.679-4.499,31.918-4.499c18.238,0,41.037,18.386,41.645,25.723c0.608,7.336,1.216,28.833-6.687,38.615
		c-7.904,9.781-6.08,10.999-20.063,13.444C133.306,113.523,124.794,111.152,124.794,111.152z M145.604,476.188l8.208-256h41.034
		l5.129,256H145.604z M349.75,386.61c0,0-20.517,71.809-63.837,71.809c-43.32,0-53.348-51.293-53.348-51.293
		s-13.099-71.811-10.021-112.846c3.077-41.035,35.905-85.147,55.397-86.172c19.492-1.025,37.957,5.129,48.729,22.57
		c10.771,17.439,23.081,58.473,23.081,58.473l-46.164,19.492c0,0,0-49.145-19.492-51.195c-19.49-2.052-18.465,46.262-18.465,46.262
		s-1.025,62.771,2.052,84.316c3.077,21.543,19.492,23.966,27.222,22.942c7.73-1.027,23.045-20.78,23.045-20.78h-32.036l8.991-44.362
		l54.846-5.388l8.209,48.219L349.75,386.61z M502,462.188h-37v-94.045l-58-3.078v97.123h-31.603l-4.103-254H416v116h47V208.108
		l39,8.207V462.188z M512,175.79V80.425l4.287,0.295c-6.086-5.895-9.449-14.155-9.449-23.321c0-17.894,14.448-32.399,32.244-32.399
		s32.232,14.505,32.232,32.399c0,10.953-5.42,20.616-13.693,26.481l2.745,0.213l-5.683,92.512l-12.185-1.631l-1.671,16.302
		l-17.527-5.706l1.34-11.819L512,175.79z M649,270.188h-31.5l5.13,184h-46.165l3.363-173.308L536,276.841v-58.987l113-9.746V270.188
		z M668.904,164.786c-14.287,15.894-38.606,25.063-66.572,9.169c-27.968-15.894-26.143-77.636-26.143-77.636
		s1.354-51.35,30.771-59.909c29.417-8.558,62.836,14.672,71.356,44.015L644.28,91.428c0,0-8.511-32.399-24.317-29.954
		c-15.808,2.445-12.769,49.516-12.769,49.516s9.578,47.309,29.791,42.792c5.473-1.223,17.022-17.728,13.375-27.509l31.614-7.336
		C681.975,118.937,683.19,148.892,668.904,164.786z"/>
</g>
<g>
</g>
<g>
</g>
<g>
</g>
<g>
</g>
<g>
</g>
<g>
</g>
<g>
</g>
<g>
</g>
<g>
</g>
<g>
</g>
<g>
</g>
<g>
</g>
<g>
</g>
<g>
</g>
<g>
</g>
</svg>
